<svg xmlns="http://www.w3.org/2000/svg" width="48" height="49" viewBox="0 0 48 49" fill="none"><g clip-path="url(#clip0_13028_394)"><path d="M8.80006 40.916H28.0001H47.2001C47.6801 40.916 48 40.5961 48 40.1161V25.7161V11.3161V1.71598C48 1.23598 47.6801 0.916016 47.2001 0.916016H32H23.2H8.79997C8.31997 0.916016 8 1.23598 8 1.71598V20.916V27.316V36.916V40.116C8 40.596 8.32006 40.916 8.80006 40.916ZM9.60003 28.116H17.6C17.2 32.356 13.84 35.716 9.60003 36.116V28.116ZM9.60003 2.51605H22.4V7.31605H21.6C21.12 7.31605 20.8001 7.63602 20.8001 8.11602C20.8001 8.59602 21.12 8.91598 21.6 8.91598H24.8C25.28 8.91598 25.6 8.59602 25.6 8.11602C25.6 7.63602 25.28 7.31605 24.8 7.31605H24V2.51605H31.2V11.3161C31.2 11.7961 31.52 12.116 32 12.116H35.2V12.916C35.2 13.396 35.5199 13.716 35.9999 13.716C36.4799 13.716 36.7999 13.396 36.7999 12.916V9.71605C36.7999 9.23605 36.4799 8.91608 35.9999 8.91608C35.5199 8.91608 35.2 9.23605 35.2 9.71605V10.516H32.8V2.51605H46.4V10.516H43.2V9.71605C43.2 9.23605 42.8801 8.91608 42.4001 8.91608C41.9201 8.91608 41.6001 9.23605 41.6001 9.71605V12.916C41.6001 13.396 41.9201 13.716 42.4001 13.716C42.8801 13.716 43.2 13.396 43.2 12.916V12.116H46.4V24.916H41.6V24.116C41.6 23.636 41.28 23.3161 40.8 23.3161C40.32 23.3161 40.0001 23.636 40.0001 24.116V27.316C40.0001 27.796 40.32 28.116 40.8 28.116C41.28 28.116 41.6 27.796 41.6 27.316V26.516H46.4V39.316H28.8V26.516H33.6V27.316C33.6 27.796 33.92 28.116 34.4 28.116C34.88 28.116 35.2 27.796 35.2 27.316V24.116C35.2 23.636 34.88 23.3161 34.4 23.3161C33.92 23.3161 33.6 23.636 33.6 24.116V24.916H28.0001C27.5201 24.916 27.2001 25.236 27.2001 25.716V39.316H9.60003V37.6859C14.9836 37.2798 19.2 32.8068 19.2 27.316C19.2 26.836 18.8801 26.516 18.4001 26.516H9.60003V21.716H23.2001C23.6801 21.716 24 21.3961 24 20.9161V15.316H24.8C25.28 15.316 25.6 14.996 25.6 14.516C25.6 14.036 25.28 13.7161 24.8 13.7161H21.6C21.12 13.7161 20.8001 14.036 20.8001 14.516C20.8001 14.996 21.12 15.316 21.6 15.316H22.4V20.116H9.60003V2.51605Z" fill="black"></path><path d="M6.16001 40.676C6.47998 40.3561 6.47998 39.8761 6.16001 39.556C5.84004 39.236 5.36004 39.236 5.03998 39.556L4.00001 40.596V3.63598L5.03998 4.67605C5.20001 4.83608 5.35995 4.91605 5.59995 4.91605C5.83995 4.91605 5.99998 4.83608 6.15991 4.67605C6.47988 4.35608 6.47988 3.87608 6.15991 3.55602L3.89688 1.29289C3.7661 1.05767 3.5186 0.916016 3.19995 0.916016C2.88129 0.916016 2.63388 1.05767 2.50301 1.29289L0.239977 3.55602C-0.0799922 3.87598 -0.0799922 4.35598 0.239977 4.67605C0.559945 4.99611 1.03995 4.99602 1.36001 4.67605L2.39998 3.63598V40.596L1.36001 39.556C1.04004 39.236 0.560039 39.236 0.239977 39.556C-0.0799922 39.876 -0.0799922 40.356 0.239977 40.676L2.5031 42.9392C2.63388 43.1744 2.88129 43.316 3.20004 43.316C3.5187 43.316 3.7661 43.1744 3.89688 42.9392L6.16001 40.676Z" fill="black"></path><path d="M47.9996 45.7164C47.9996 45.7159 47.9996 45.7155 47.9996 45.7149C47.9995 45.3966 47.8579 45.1495 47.6228 45.0187L45.3596 42.7556C45.0397 42.4356 44.5597 42.4356 44.2396 42.7556C43.9196 43.0756 43.9196 43.5556 44.2396 43.8756L45.2796 44.9156H8.31967L9.35964 43.8757C9.67961 43.5558 9.67961 43.0758 9.35964 42.7557C9.03967 42.4357 8.55967 42.4357 8.23961 42.7557L5.97648 45.0188C5.74127 45.1496 5.59961 45.397 5.59961 45.7158C5.59961 46.0345 5.74127 46.2818 5.97648 46.4127L8.23961 48.6758C8.39964 48.8359 8.55958 48.9158 8.79958 48.9158C9.03958 48.9158 9.19961 48.8359 9.35955 48.6758C9.67952 48.3559 9.67952 47.8759 9.35955 47.5558L8.31967 46.5157H45.2797L44.2397 47.5557C43.9197 47.8757 43.9197 48.3557 44.2397 48.6757C44.3997 48.8358 44.5597 48.9157 44.7997 48.9157C45.0397 48.9157 45.1997 48.8358 45.3596 48.6757L47.6228 46.4126C47.8578 46.2819 47.9994 46.0348 47.9996 45.7164Z" fill="black"></path></g><defs><clipPath id="clip0_13028_394"><rect width="48" height="48" fill="white" transform="translate(0 0.916016)"></rect></clipPath></defs></svg>