<svg xmlns="http://www.w3.org/2000/svg" width="48" height="49" viewBox="0 0 48 49" fill="none"><g clip-path="url(#clip0_13028_388)"><path d="M45.6 6.51576H34.012L24.4 1.02136C24.1541 0.880902 23.8523 0.880902 23.6064 1.02136L13.988 6.51576H2.4C1.07452 6.51576 0 7.59027 0 8.91576V38.5158C0 39.8412 1.07452 40.9158 2.4 40.9158H16.7888C16.6114 42.1977 15.9587 43.3662 14.96 44.1894H14.4C13.1152 44.1894 12.0736 45.2309 12.0736 46.5158C12.0736 47.8006 13.1152 48.8422 14.4 48.8422H33.6C34.8848 48.8422 35.9264 47.8006 35.9264 46.5158C35.9264 45.2309 34.8848 44.1894 33.6 44.1894H33.04C32.0413 43.3662 31.3886 42.1977 31.2112 40.9158H45.6C46.9255 40.9158 48 39.8412 48 38.5158V8.91576C48 7.59027 46.9255 6.51576 45.6 6.51576ZM13.6 9.49416L23.2 14.9798V25.1398L13.6 19.6518V9.49416ZM24.8 14.9798L34.4 9.49416V19.6542L24.8 25.1374V14.9798ZM24 2.63736L33.588 8.11576L24 13.5942L14.412 8.11576L24 2.63736ZM34.4736 46.5158C34.4736 46.9982 34.0825 47.3894 33.6 47.3894H14.4C13.9175 47.3894 13.5264 46.9982 13.5264 46.5158C13.5264 46.0333 13.9175 45.6422 14.4 45.6422H33.6C34.0825 45.6422 34.4736 46.0333 34.4736 46.5158ZM31.0208 44.1894H16.9792C17.6648 43.2183 18.1031 42.0946 18.256 40.9158H29.744C29.8969 42.0946 30.3352 43.2183 31.0208 44.1894ZM45.6 39.3158H2.4C1.95817 39.3158 1.6 38.9576 1.6 38.5158V36.9158H4.8C5.24183 36.9158 5.6 36.5576 5.6 36.1158C5.6 35.6739 5.24183 35.3158 4.8 35.3158H1.6V8.91576C1.6 8.47393 1.95817 8.11576 2.4 8.11576H12V19.6534L8.5296 21.6534L8.9088 20.2406C8.98211 19.9639 8.90225 19.6691 8.69931 19.4673C8.49636 19.2655 8.20116 19.1873 7.92491 19.2621C7.64865 19.337 7.43331 19.5535 7.36 19.8302L6.48 23.1102C6.42502 23.3151 6.45373 23.5335 6.5598 23.7173C6.66588 23.9011 6.84063 24.0352 7.0456 24.0902L10.3256 24.9702C10.3932 24.9884 10.4628 24.9978 10.5328 24.9982C10.9356 24.9999 11.2768 24.7019 11.3294 24.3026C11.3819 23.9033 11.1295 23.5272 10.74 23.4246L9.3272 23.0462L12.8 21.0382L23.2 26.9798V30.9846L22.1656 29.9502C21.8517 29.647 21.3527 29.6513 21.0441 29.9599C20.7356 30.2685 20.7312 30.7675 21.0344 31.0814L23.4344 33.4814C23.7468 33.7937 24.2532 33.7937 24.5656 33.4814L26.9656 31.0814C27.2688 30.7675 27.2644 30.2685 26.9559 29.9599C26.6473 29.6513 26.1483 29.647 25.8344 29.9502L24.8 30.9846V26.9798L35.2 21.0382L38.672 23.043L37.2592 23.4214C36.8686 23.5226 36.6146 23.8988 36.6666 24.299C36.7187 24.6991 37.0605 24.9978 37.464 24.9958C37.534 24.9954 37.6036 24.986 37.6712 24.9678L40.9512 24.0878C41.1562 24.0328 41.3309 23.8987 41.437 23.7149C41.5431 23.5311 41.5718 23.3127 41.5168 23.1078L40.6368 19.8278C40.5224 19.401 40.0836 19.1477 39.6568 19.2622C39.23 19.3766 38.9768 19.8154 39.0912 20.2422L39.4704 21.655L36 19.6534V8.11576H45.6C46.0418 8.11576 46.4 8.47393 46.4 8.91576V35.3158H8C7.55817 35.3158 7.2 35.6739 7.2 36.1158C7.2 36.5576 7.55817 36.9158 8 36.9158H46.4V38.5158C46.4 38.9576 46.0418 39.3158 45.6 39.3158Z" fill="black"></path></g><defs><clipPath id="clip0_13028_388"><rect width="48" height="48" fill="white" transform="translate(0 0.916016)"></rect></clipPath></defs></svg>