<svg xmlns="http://www.w3.org/2000/svg" width="48" height="49" viewBox="0 0 48 49" fill="none"><g clip-path="url(#clip0_13028_403)"><path d="M31.3917 23.0944C32.2461 22.7058 32.7957 21.8547 32.7981 20.916V8.11602C32.7981 6.79055 31.7236 5.71602 30.3981 5.71602C30.125 5.71869 29.8543 5.76845 29.5981 5.86326V3.31602C29.598 1.99055 28.5235 0.916016 27.198 0.916016H20.798C19.4725 0.916016 18.398 1.99055 18.398 3.31602V5.86326C18.1418 5.76853 17.8712 5.71869 17.598 5.71602C16.2726 5.71602 15.198 6.79055 15.198 8.11602V20.916C15.2005 21.8547 15.75 22.7058 16.6045 23.0944L9.91806 46.8832C9.78278 47.3646 9.88042 47.8816 10.1818 48.2806C10.4833 48.6796 10.954 48.9147 11.4541 48.916H13.0485C13.7096 48.9136 14.3019 48.5071 14.5421 47.8912L21.0909 30.8632L22.3397 45.8488C22.4132 46.6759 23.1038 47.3114 23.9341 47.316H24.0622C24.8925 47.3114 25.5831 46.6759 25.6566 45.8488L26.9054 30.8632L33.4542 47.8912C33.6944 48.5071 34.2867 48.9136 34.9478 48.916H36.5422C37.043 48.9159 37.5148 48.6814 37.8172 48.2822C38.1197 47.8831 38.2177 47.3653 38.0823 46.8832L31.3917 23.0944ZM19.998 15.1689C20.2543 15.2636 20.5249 15.3134 20.798 15.3161H27.198C27.4712 15.3134 27.7418 15.2637 27.998 15.1689V16.1161C27.998 16.5579 27.6398 16.916 27.198 16.916H20.798C20.3562 16.916 19.998 16.5579 19.998 16.1161V15.1689ZM19.998 3.31602C19.998 2.87422 20.3562 2.51604 20.798 2.51604H27.198C27.6398 2.51604 27.998 2.87422 27.998 3.31602V12.916C27.998 13.3578 27.6398 13.716 27.198 13.716H20.798C20.3562 13.716 19.998 13.3578 19.998 12.916V3.31602ZM16.7981 8.11602C16.7981 7.67422 17.1562 7.31604 17.598 7.31604C18.0398 7.31604 18.398 7.67422 18.398 8.11602V16.116C18.398 17.4415 19.4725 18.516 20.798 18.516H27.198C28.5235 18.516 29.598 17.4415 29.598 16.116V8.11602C29.598 7.67422 29.9562 7.31604 30.398 7.31604C30.8398 7.31604 31.198 7.67422 31.198 8.11602V20.916C31.198 21.3578 30.8398 21.716 30.398 21.716H17.598C17.1562 21.716 16.7981 21.3578 16.7981 20.916V8.11602ZM24.0621 45.716H23.9341L22.4676 28.1161H25.5284L24.0621 45.716ZM34.9476 47.3161L27.1452 27.0289C27.0263 26.7197 26.7292 26.5158 26.398 26.516H21.598C21.2668 26.5158 20.9697 26.7197 20.8508 27.0289L13.0484 47.3161H11.454L18.2036 23.3161H29.7924L36.5421 47.3161H34.9476Z" fill="black"></path><path d="M23.9978 11.316C25.7652 11.316 27.1978 9.88325 27.1978 8.11599C27.1978 6.34872 25.7651 4.91602 23.9978 4.91602C22.2305 4.91602 20.7979 6.34872 20.7979 8.11599C20.7979 9.88325 22.2305 11.316 23.9978 11.316ZM23.9978 6.51596C24.8815 6.51596 25.5978 7.23232 25.5978 8.11599C25.5978 8.99966 24.8815 9.71602 23.9978 9.71602C23.1142 9.71602 22.3978 8.99966 22.3978 8.11599C22.3978 7.23232 23.1142 6.51596 23.9978 6.51596Z" fill="black"></path></g><defs><clipPath id="clip0_13028_403"><rect width="48" height="48" fill="white" transform="translate(0 0.916016)"></rect></clipPath></defs></svg>