<svg xmlns="http://www.w3.org/2000/svg" width="48" height="49" viewBox="0 0 48 49" fill="none"><g clip-path="url(#clip0_13028_411)"><path d="M24 0.916016C21.879 0.918345 19.8455 1.76195 18.3457 3.26173C16.8459 4.76152 16.0023 6.795 16 8.91602C16 16.2528 21.6 20.348 23.2 21.3664V22.516C23.2 22.7282 23.2843 22.9317 23.4343 23.0817C23.5843 23.2317 23.7878 23.316 24 23.316C24.2122 23.316 24.4157 23.2317 24.5657 23.0817C24.7157 22.9317 24.8 22.7282 24.8 22.516V21.3664C26.4 20.348 32 16.2528 32 8.91602C31.9977 6.795 31.1541 4.76152 29.6543 3.26173C28.1545 1.76195 26.121 0.918345 24 0.916016ZM24 19.9744C22.56 19.0272 17.6 15.3072 17.6 8.91602C17.6 7.21863 18.2743 5.59077 19.4745 4.39053C20.6747 3.1903 22.3026 2.51602 24 2.51602C25.6974 2.51602 27.3252 3.1903 28.5255 4.39053C29.7257 5.59077 30.4 7.21863 30.4 8.91602C30.4 15.2872 25.44 19.0232 24 19.9744Z" fill="black"></path><path d="M23.9998 5.71582C23.3669 5.71582 22.7482 5.9035 22.222 6.25512C21.6957 6.60674 21.2856 7.10651 21.0434 7.69123C20.8012 8.27596 20.7378 8.91937 20.8613 9.54011C20.9848 10.1608 21.2895 10.731 21.7371 11.1786C22.1846 11.6261 22.7548 11.9309 23.3755 12.0543C23.9963 12.1778 24.6397 12.1144 25.2244 11.8722C25.8091 11.63 26.3089 11.2199 26.6605 10.6936C27.0121 10.1674 27.1998 9.54872 27.1998 8.91582C27.1998 8.06713 26.8627 7.25319 26.2625 6.65308C25.6624 6.05296 24.8485 5.71582 23.9998 5.71582ZM23.9998 10.5158C23.6834 10.5158 23.374 10.422 23.1109 10.2462C22.8478 10.0704 22.6427 9.82048 22.5216 9.52811C22.4005 9.23575 22.3688 8.91405 22.4305 8.60368C22.4923 8.29331 22.6447 8.00821 22.8684 7.78445C23.0922 7.56069 23.3773 7.4083 23.6877 7.34656C23.998 7.28483 24.3197 7.31651 24.6121 7.43761C24.9045 7.55871 25.1543 7.76379 25.3302 8.02691C25.506 8.29003 25.5998 8.59937 25.5998 8.91582C25.5998 9.34017 25.4312 9.74713 25.1312 10.0472C24.8311 10.3472 24.4242 10.5158 23.9998 10.5158Z" fill="black"></path><path d="M7.2 30.1662V30.5158C7.2 30.728 7.28429 30.9315 7.43431 31.0815C7.58434 31.2315 7.78783 31.3158 8 31.3158C8.21217 31.3158 8.41566 31.2315 8.56569 31.0815C8.71571 30.9315 8.8 30.728 8.8 30.5158V30.1662C10.4 29.1478 16 25.0526 16 17.7158C16 15.5941 15.1571 13.5593 13.6569 12.059C12.1566 10.5587 10.1217 9.71582 8 9.71582C5.87827 9.71582 3.84344 10.5587 2.34315 12.059C0.842855 13.5593 0 15.5941 0 17.7158C0 25.0526 5.6 29.1478 7.2 30.1662ZM8 11.3158C9.6968 11.3177 11.3236 11.9926 12.5234 13.1924C13.7232 14.3923 14.3981 16.019 14.4 17.7158C14.4 24.087 9.44 27.823 8 28.7742C6.5552 27.827 1.6 24.107 1.6 17.7158C1.60191 16.019 2.2768 14.3923 3.47662 13.1924C4.67644 11.9926 6.3032 11.3177 8 11.3158Z" fill="black"></path><path d="M7.9998 20.9156C8.6327 20.9156 9.25139 20.728 9.77763 20.3763C10.3039 20.0247 10.714 19.5249 10.9562 18.9402C11.1984 18.3555 11.2618 17.7121 11.1383 17.0913C11.0148 16.4706 10.7101 15.9004 10.2625 15.4529C9.81502 15.0054 9.24483 14.7006 8.62409 14.5771C8.00335 14.4536 7.35994 14.517 6.77522 14.7592C6.19049 15.0014 5.69072 15.4116 5.3391 15.9378C4.98748 16.464 4.7998 17.0827 4.7998 17.7156C4.7998 18.5643 5.13695 19.3783 5.73706 19.9784C6.33718 20.5785 7.15111 20.9156 7.9998 20.9156ZM7.9998 16.1156C8.31625 16.1156 8.6256 16.2095 8.88872 16.3853C9.15184 16.5611 9.35691 16.811 9.47801 17.1033C9.59911 17.3957 9.6308 17.7174 9.56906 18.0278C9.50733 18.3381 9.35494 18.6232 9.13118 18.847C8.90741 19.0708 8.62232 19.2231 8.31195 19.2849C8.00158 19.3466 7.67987 19.3149 7.38751 19.1938C7.09515 19.0727 6.84526 18.8677 6.66945 18.6045C6.49364 18.3414 6.3998 18.0321 6.3998 17.7156C6.3998 17.2913 6.56838 16.8843 6.86843 16.5843C7.16849 16.2842 7.57546 16.1156 7.9998 16.1156Z" fill="black"></path><path d="M40 9.71582C37.879 9.71815 35.8455 10.5618 34.3457 12.0615C32.8459 13.5613 32.0023 15.5948 32 17.7158C32 25.0526 37.6 29.1478 39.2 30.1662V30.5158C39.2 30.728 39.2843 30.9315 39.4343 31.0815C39.5843 31.2315 39.7878 31.3158 40 31.3158C40.2122 31.3158 40.4157 31.2315 40.5657 31.0815C40.7157 30.9315 40.8 30.728 40.8 30.5158V30.1662C42.4 29.1478 48 25.0526 48 17.7158C47.9977 15.5948 47.1541 13.5613 45.6543 12.0615C44.1545 10.5618 42.121 9.71815 40 9.71582ZM40 28.7742C38.56 27.827 33.6 24.107 33.6 17.7158C33.6 16.0184 34.2743 14.3906 35.4745 13.1903C36.6748 11.9901 38.3026 11.3158 40 11.3158C41.6974 11.3158 43.3252 11.9901 44.5255 13.1903C45.7257 14.3906 46.4 16.0184 46.4 17.7158C46.4 24.087 41.44 27.823 40 28.7742Z" fill="black"></path><path d="M39.9998 14.5156C39.3669 14.5156 38.7482 14.7033 38.222 15.0549C37.6957 15.4065 37.2856 15.9063 37.0434 16.491C36.8012 17.0758 36.7378 17.7192 36.8613 18.3399C36.9848 18.9607 37.2895 19.5308 37.7371 19.9784C38.1846 20.4259 38.7548 20.7307 39.3755 20.8541C39.9963 20.9776 40.6397 20.9142 41.2244 20.672C41.8091 20.4298 42.3089 20.0197 42.6605 19.4934C43.0121 18.9672 43.1998 18.3485 43.1998 17.7156C43.1998 16.8669 42.8627 16.053 42.2625 15.4529C41.6624 14.8528 40.8485 14.5156 39.9998 14.5156ZM39.9998 19.3156C39.6834 19.3156 39.374 19.2218 39.1109 19.046C38.8478 18.8702 38.6427 18.6203 38.5216 18.3279C38.4005 18.0356 38.3688 17.7139 38.4305 17.4035C38.4923 17.0931 38.6447 16.808 38.8684 16.5843C39.0922 16.3605 39.3773 16.2081 39.6877 16.1464C39.998 16.0846 40.3197 16.1163 40.6121 16.2374C40.9045 16.3585 41.1543 16.5636 41.3302 16.8267C41.506 17.0898 41.5998 17.3992 41.5998 17.7156C41.5998 18.14 41.4312 18.5469 41.1312 18.847C40.8311 19.1471 40.4242 19.3156 39.9998 19.3156Z" fill="black"></path><path d="M14.7703 48.3631C14.9773 48.6027 15.251 48.7752 15.5565 48.8587C15.8619 48.9422 16.1853 48.9329 16.4855 48.8319L23.9999 46.3271L31.5143 48.8359C31.8153 48.9373 32.1397 48.9468 32.4461 48.8632C32.7525 48.7795 33.0272 48.6066 33.235 48.3663C33.4428 48.1261 33.5744 47.8295 33.613 47.5142C33.6516 47.1989 33.5955 46.8792 33.4519 46.5959L30.1399 39.9711C30.2517 39.9018 30.3444 39.8055 30.4094 39.691C30.4744 39.5765 30.5096 39.4476 30.5119 39.3159C30.5119 39.1038 30.4276 38.9003 30.2775 38.7503C30.1275 38.6002 29.924 38.5159 29.7119 38.5159H29.4103L25.4311 30.5575C25.2982 30.2917 25.0939 30.0681 24.8411 29.9119C24.5883 29.7556 24.297 29.6729 23.9999 29.6729C23.7027 29.6729 23.4114 29.7556 23.1586 29.9119C22.9058 30.0681 22.7015 30.2917 22.5687 30.5575L18.5895 38.5159H18.2879C18.0757 38.5159 17.8722 38.6002 17.7222 38.7503C17.5721 38.9003 17.4879 39.1038 17.4879 39.3159C17.4895 39.4481 17.5245 39.5777 17.5895 39.6928C17.6545 39.8079 17.7475 39.9047 17.8599 39.9743L14.5479 46.5959C14.405 46.8792 14.3498 47.1987 14.3894 47.5135C14.4291 47.8283 14.5616 48.1241 14.7703 48.3631ZM19.8159 39.6431L19.8263 39.6223L23.9999 31.2727L28.1735 39.6199C28.1735 39.6271 28.1807 39.6335 28.1839 39.6407L32.0207 47.3159L24.7999 44.9079V39.0839C24.7999 38.8718 24.7156 38.6683 24.5655 38.5183C24.4155 38.3682 24.212 38.2839 23.9999 38.2839C23.7877 38.2839 23.5842 38.3682 23.4342 38.5183C23.2841 38.6683 23.1999 38.8718 23.1999 39.0839V44.9079L15.9791 47.3159L19.8159 39.6431Z" fill="black"></path><path d="M8.0002 32.7471C7.78802 32.7471 7.58454 32.8314 7.43451 32.9814C7.28448 33.1314 7.2002 33.3349 7.2002 33.5471V33.7159C7.20026 34.228 7.26149 34.7383 7.3826 35.2359C7.42501 35.4098 7.52452 35.5644 7.6652 35.6751C7.80588 35.7857 7.97961 35.846 8.1586 35.8463C8.22298 35.8462 8.28714 35.8387 8.3498 35.8239C8.45186 35.7989 8.54802 35.7541 8.63277 35.692C8.71752 35.6299 8.78921 35.5517 8.84374 35.4619C8.89827 35.3721 8.93457 35.2724 8.95057 35.1686C8.96657 35.0647 8.96196 34.9587 8.93699 34.8567C8.84631 34.4832 8.80038 34.1002 8.8002 33.7159V33.5471C8.8002 33.3349 8.71591 33.1314 8.56588 32.9814C8.41585 32.8314 8.21237 32.7471 8.0002 32.7471Z" fill="black"></path><path d="M15.2398 38.5156H13.7238C13.5117 38.5156 13.3082 38.5999 13.1581 38.7499C13.0081 38.9 12.9238 39.1035 12.9238 39.3156C12.9238 39.5278 13.0081 39.7313 13.1581 39.8813C13.3082 40.0313 13.5117 40.1156 13.7238 40.1156H15.2398C15.452 40.1156 15.6555 40.0313 15.8055 39.8813C15.9555 39.7313 16.0398 39.5278 16.0398 39.3156C16.0398 39.1035 15.9555 38.9 15.8055 38.7499C15.6555 38.5999 15.452 38.5156 15.2398 38.5156Z" fill="black"></path><path d="M10.4243 39.2751C10.5156 39.3319 10.6173 39.3697 10.7235 39.3863C10.8297 39.4029 10.9382 39.3979 11.0424 39.3716C11.1467 39.3454 11.2445 39.2984 11.3302 39.2334C11.4159 39.1685 11.4876 39.087 11.541 38.9937C11.5945 38.9005 11.6286 38.7974 11.6413 38.6907C11.6541 38.584 11.6452 38.4758 11.6152 38.3725C11.5851 38.2693 11.5346 38.1732 11.4667 38.09C11.3987 38.0067 11.3146 37.938 11.2195 37.8879C10.8436 37.6711 10.4979 37.4056 10.1915 37.0983C10.0413 36.9518 9.8395 36.8702 9.62966 36.8711C9.41982 36.872 9.21873 36.9553 9.06973 37.103C8.92072 37.2508 8.83573 37.4511 8.83307 37.661C8.83041 37.8708 8.9103 38.0732 9.05552 38.2247C9.46262 38.6346 9.92301 38.9879 10.4243 39.2751Z" fill="black"></path><path d="M37.798 37.1084C37.4918 37.4158 37.1455 37.6803 36.7684 37.8948C36.615 37.9822 36.4948 38.1178 36.4265 38.2806C36.3582 38.4434 36.3457 38.6242 36.3909 38.7948C36.4361 38.9655 36.5365 39.1164 36.6764 39.224C36.8163 39.3317 36.9879 39.39 37.1644 39.39C37.3028 39.3901 37.4388 39.354 37.5588 39.2852C38.0617 38.9999 38.5235 38.6476 38.9316 38.238C39.0814 38.0877 39.1653 37.884 39.165 37.6718C39.1646 37.4596 39.0799 37.2562 38.9296 37.1064C38.7793 36.9566 38.5756 36.8727 38.3634 36.873C38.1512 36.8734 37.9478 36.9581 37.798 37.1084Z" fill="black"></path><path d="M39.6451 35.8421C39.7081 35.8583 39.7729 35.8663 39.8379 35.8661C40.0167 35.8659 40.1903 35.8058 40.3309 35.6955C40.4716 35.5851 40.5712 35.4309 40.6139 35.2573C40.7377 34.7527 40.8003 34.2352 40.8003 33.7157V33.5637C40.8003 33.3515 40.7161 33.148 40.566 32.998C40.416 32.848 40.2125 32.7637 40.0003 32.7637C39.7882 32.7637 39.5847 32.848 39.4347 32.998C39.2846 33.148 39.2003 33.3515 39.2003 33.5637V33.7157C39.2005 34.106 39.1535 34.495 39.0603 34.8741C39.0096 35.08 39.0427 35.2976 39.1524 35.4791C39.262 35.6606 39.4393 35.7912 39.6451 35.8421Z" fill="black"></path><path d="M34.2594 38.5156H32.7434C32.5312 38.5156 32.3277 38.5999 32.1777 38.7499C32.0276 38.9 31.9434 39.1035 31.9434 39.3156C31.9434 39.5278 32.0276 39.7313 32.1777 39.8813C32.3277 40.0313 32.5312 40.1156 32.7434 40.1156H34.2594C34.4715 40.1156 34.675 40.0313 34.825 39.8813C34.9751 39.7313 35.0594 39.5278 35.0594 39.3156C35.0594 39.1035 34.9751 38.9 34.825 38.7499C34.675 38.5999 34.4715 38.5156 34.2594 38.5156Z" fill="black"></path><path d="M24.8002 27.316V25.716C24.8002 25.5038 24.7159 25.3004 24.5659 25.1503C24.4159 25.0003 24.2124 24.916 24.0002 24.916C23.788 24.916 23.5845 25.0003 23.4345 25.1503C23.2845 25.3004 23.2002 25.5038 23.2002 25.716V27.316C23.2002 27.5282 23.2845 27.7317 23.4345 27.8817C23.5845 28.0317 23.788 28.116 24.0002 28.116C24.2124 28.116 24.4159 28.0317 24.5659 27.8817C24.7159 27.7317 24.8002 27.5282 24.8002 27.316Z" fill="black"></path></g><defs><clipPath id="clip0_13028_411"><rect width="48" height="48" fill="white" transform="translate(0 0.916016)"></rect></clipPath></defs></svg>