<svg xmlns="http://www.w3.org/2000/svg" width="48" height="49" viewBox="0 0 48 49" fill="none"><g clip-path="url(#clip0_13028_428)"><path d="M43.2 0.918945H4.8C2.15016 0.921664 0.002625 3.0691 0 5.71895V40.919C0.002625 43.5688 2.15016 45.7163 4.8 45.719H39.8128L42.3072 48.2134C42.9937 48.8964 44.0233 49.1 44.9181 48.7296C45.8128 48.3592 46.3972 47.4874 46.4001 46.5189C46.3982 45.9404 46.1835 45.3829 45.7969 44.9526C47.1674 44.0683 47.9967 42.55 48.0001 40.919V5.71895C47.9974 3.0691 45.8498 0.921664 43.2 0.918945ZM4.8 2.51898H43.2C44.9673 2.51898 46.4 3.95166 46.4 5.71895V7.31898H1.60003V5.71895C1.60003 3.95166 3.03272 2.51898 4.8 2.51898ZM44.56 47.079C44.2483 47.3876 43.7462 47.3876 43.4345 47.079L36.8001 40.447L37.9281 39.319L44.5681 45.9591C44.7202 46.1056 44.8062 46.3078 44.8062 46.519C44.8062 46.7303 44.7202 46.9325 44.5681 47.079H44.56ZM24 40.919C16.0471 40.919 9.6 34.4719 9.6 26.519C9.6 18.5661 16.0471 12.119 24 12.119C31.9529 12.119 38.4 18.5661 38.4 26.519C38.3907 34.468 31.9491 40.9097 24 40.919ZM36.9832 35.8334L37.5064 36.3566C37.7531 36.6012 37.8104 36.9787 37.6472 37.2854C37.6099 37.3571 37.5624 37.4231 37.5064 37.4814L34.9624 40.0254C34.9045 40.0847 34.8358 40.1322 34.76 40.1654C34.4551 40.3261 34.081 40.2694 33.8376 40.0254L33.3143 39.5022C34.7277 38.4857 35.9667 37.2467 36.9832 35.8334ZM44.64 43.7725L39 38.1318C39.0184 38.0998 39.0408 38.0709 39.0584 38.0382C39.5562 37.1108 39.385 35.9665 38.6376 35.2254L37.8712 34.459C41.8753 27.4813 40.094 18.6172 33.7051 13.728C27.3162 8.83885 18.2945 9.43623 12.6058 15.1248C6.91716 20.8134 6.31988 29.8351 11.209 36.2241C16.0982 42.613 24.9623 44.3944 31.9401 40.3901L32.7065 41.1565C33.1548 41.6079 33.7639 41.8628 34.4001 41.8654C34.7699 41.8662 35.1343 41.7758 35.4608 41.6022C35.5129 41.5791 35.56 41.5447 35.6096 41.5174L38.2128 44.1189H4.8C3.03272 44.1189 1.60003 42.6863 1.60003 40.919V8.91901H46.4001V40.919C46.3957 42.1252 45.716 43.2273 44.64 43.7725Z" fill="black"></path><path d="M4.79997 5.71908C5.24178 5.71908 5.59994 5.36092 5.59994 4.91911C5.59994 4.4773 5.24178 4.11914 4.79997 4.11914C4.35816 4.11914 4 4.4773 4 4.91911C4 5.36092 4.35816 5.71908 4.79997 5.71908Z" fill="black"></path><path d="M8.00016 5.71908C8.44197 5.71908 8.80013 5.36092 8.80013 4.91911C8.80013 4.4773 8.44197 4.11914 8.00016 4.11914C7.55835 4.11914 7.2002 4.4773 7.2002 4.91911C7.2002 5.36092 7.55835 5.71908 8.00016 5.71908Z" fill="black"></path><path d="M11.2004 5.71908C11.6422 5.71908 12.0003 5.36092 12.0003 4.91911C12.0003 4.4773 11.6422 4.11914 11.2004 4.11914C10.7585 4.11914 10.4004 4.4773 10.4004 4.91911C10.4004 5.36092 10.7585 5.71908 11.2004 5.71908Z" fill="black"></path><path d="M31.9997 22.7357V18.519C31.9997 17.6353 31.2833 16.9189 30.3996 16.9189H28.7997C27.9527 16.9223 27.2551 17.5852 27.2085 18.4309L25.1045 16.5405C24.4766 15.9748 23.5227 15.9748 22.8949 16.5405L14.9405 23.6878C14.4381 24.1329 14.2655 24.8434 14.5076 25.4694C14.7458 26.0887 15.3362 26.5014 15.9996 26.5125V34.519C15.9996 35.4027 16.716 36.119 17.5997 36.119H30.3996C31.2833 36.119 31.9997 35.4027 31.9997 34.519V26.5125C32.6623 26.5019 33.2524 26.0906 33.4917 25.4726C33.7338 24.8466 33.5612 24.1362 33.0589 23.691L31.9997 22.7357ZM28.7997 18.519H30.3997V21.2982L28.7997 19.8582V18.519ZM24.0357 17.7317L31.9541 24.9189H23.9997L16.0093 24.8781L24.0357 17.7317ZM23.1997 34.5189V32.1189C23.1997 31.677 23.558 31.3189 23.9997 31.3189C24.4415 31.3189 24.7997 31.6771 24.7997 32.1189V34.5189H23.1997ZM26.3997 34.5189V32.1189C26.3997 30.7935 25.3252 29.7189 23.9997 29.7189C22.6743 29.7189 21.5997 30.7935 21.5997 32.1189V34.5189H17.5997V26.5189H30.3996V34.5189H26.3997Z" fill="black"></path></g><defs><clipPath id="clip0_13028_428"><rect width="48" height="48" fill="white" transform="translate(0 0.916016)"></rect></clipPath></defs></svg>