<svg xmlns="http://www.w3.org/2000/svg" id="Icons" viewBox="0 0 44 44"><defs><style>      .cls-1 {        fill: none;        stroke: #001426;        stroke-linecap: round;        stroke-linejoin: round;        stroke-width: .58px;      }    </style></defs><path class="cls-1" d="M21.93,11.06c-.33,1.24-.9,2.3-1.72,3.13-.82,.85-1.69,1.51-2.63,2-.95,.49-2.14,1.01-3.62,1.59-1.02,.38-1.84,.71-2.44,.99s-1.12,.63-1.59,1.01c-.46,.39-.77,.85-.95,1.39h10.08l-1.21,4.6H2.66l.8-3.06c.41-1.54,1.09-2.85,2.06-3.91,.96-1.07,2-1.91,3.09-2.54,1.1-.61,2.47-1.29,4.13-2,.91-.39,1.65-.72,2.21-.99,.54-.27,1.01-.57,1.39-.9,.39-.32,.65-.68,.76-1.09,.19-.71,.06-1.24-.36-1.59-.43-.35-1.09-.52-1.97-.52-2.02,0-4.27,.95-6.74,2.8l-1.48-3.92c.66-.58,1.47-1.13,2.43-1.65,.96-.52,2.05-.96,3.25-1.29,1.21-.35,2.46-.5,3.77-.5,1.65,0,2.98,.28,3.97,.85,.99,.55,1.65,1.32,1.97,2.3,.32,.96,.33,2.06,.02,3.29Z"></path><path class="cls-1" d="M37.42,16.65l3.04-11.69h-5.78l-12.49,11.69-1.15,4.43h10.43l-1.21,4.69h4.8l1.21-4.69h4.73l1.17-4.43h-4.74Zm-10.22,0l7.23-6.93-1.81,6.93h-5.42Z"></path><g><path class="cls-1" d="M13.5,38.29c1,0,1.85-.33,2.56-1.01,.71-.67,1.24-1.67,1.58-3v-.04c.26-1.22,.17-2.17-.25-2.86s-1.19-1.03-2.3-1.03c-1.03,0-1.89,.3-2.57,.91-.68,.61-1.17,1.47-1.46,2.59l-.02,.12c-.28,1.41-.21,2.48,.2,3.22,.42,.73,1.17,1.1,2.26,1.1Z"></path><path class="cls-1" d="M26.34,30.35l-1.37,5.18c-.14,.55-.35,1.02-.64,1.43-.29,.4-.68,.73-1.18,.97-.5,.24-1.12,.36-1.85,.36s-1.29-.12-1.67-.36c-.38-.24-.61-.56-.69-.97-.08-.41-.05-.88,.09-1.43l1.38-5.18"></path><line class="cls-1" x1="4.52" y1="30.35" x2="2.66" y2="38.29"></line><line class="cls-1" x1="10.03" y1="30.35" x2="8.17" y2="38.29"></line><line class="cls-1" x1="3.65" y1="34.1" x2="9.1" y2="34.1"></line><path class="cls-1" d="M26.72,38.29l2.11-7.94h3.33s1.64,.05,1.45,2.33-3.17,2.18-5.69,2.02"></path><line class="cls-1" x1="30.74" y1="34.74" x2="31.45" y2="38.29"></line><path class="cls-1" d="M40.71,31.67s-.18-1.08-1.5-1.31-2.89,.1-3.42,1.31-.11,2.11,1.48,2.43,2.58,.44,2.41,1.95-1.4,2.25-2.91,2.24-2.15-.63-2.5-1.26"></path></g></svg>