<svg xmlns="http://www.w3.org/2000/svg" id="Icons" viewBox="0 0 44 44"><defs><style>      .cls-1 {        stroke-linecap: round;        stroke-linejoin: round;        stroke-width: .97px;      }      .cls-1, .cls-2 {        fill: none;        stroke: #001426;      }      .cls-3 {        fill: #001426;      }      .cls-2 {        stroke-miterlimit: 10;        stroke-width: .97px;      }    </style></defs><g><path class="cls-1" d="M11.76,25.48L2.57,30.49s2.46-.23,6.18,.75c3.72,.98,6.43,3.88,8.44,4.89,2.01,1.01,4.86,.87,7.5-.13,2.64-.99,9.09-7.26,9.09-7.26"></path><path class="cls-3" d="M27.14,7.34c2.88,0,5.35,1.01,7.54,2.3,4.22,2.49,7.58,5.09,7.77,15.82,0,0-5.37,2.56-10.77,3.31-1.18,.16-2.33,.24-3.45,.24-4.02,0-7.63-.95-10.59-2.09-3.77-1.46-5.54-1.97-5.54-1.97,0,0-1.35-9.68,5.88-14.46,3.47-2.29,6.49-3.15,9.15-3.15m0-.97h0c-3.14,0-6.31,1.08-9.68,3.31-7.65,5.05-6.36,14.98-6.31,15.4l.09,.62,.6,.18s1.78,.53,5.46,1.95c3.71,1.43,7.39,2.16,10.93,2.16,1.2,0,2.41-.08,3.58-.25,5.48-.77,10.82-3.29,11.05-3.4l.56-.27v-.62c-.2-11.01-3.7-13.94-8.25-16.63-2.82-1.66-5.37-2.44-8.04-2.44h0Z"></path><path class="cls-2" d="M2.57,30.49s-1.87,1.55-.52,3.14c1.36,1.59,3.14,.61,4.37-.07,1.22-.69,3.16-2.06,3.16-2.06"></path><path class="cls-2" d="M33.75,29.03s.49-10.97-1.54-15.32c-1.81-3.86-5.68-6.36-7.52-6.65"></path><path class="cls-2" d="M28.02,7.37s.13-2.48-1.79-2.45-1.88,2.46-1.88,2.46"></path></g><g id="Layer_2" data-name="Layer 2"><path class="cls-3" d="M20.09,17.47h-.03c.5-.22,.87-.68,.95-1.25,.1-.74-.32-1.44-.99-1.7l.19-1.33-.71-.1-.18,1.32c-.73,.05-1.36,.61-1.46,1.37-.08,.57,.16,1.12,.57,1.46h-.03s-3.03,5.52-3.03,5.52v1.83s.96-1.45,.96-1.45l2.65-5.61c.07,.02,.15,.04,.22,.05s.15,.01,.23,.02l.85,6.1,.51,1.66,.52-1.76-1.24-6.12Zm-1.41-1.57c.06-.42,.44-.71,.86-.65s.71,.44,.65,.86-.44,.71-.86,.65-.71-.44-.65-.86Z"></path></g></svg>