<svg xmlns="http://www.w3.org/2000/svg" id="Layer_3" data-name="Layer 3" viewBox="0 0 44 44"><defs><style>      .cls-1 {        fill: none;      }      .cls-1, .cls-2 {        stroke: #001426;        stroke-miterlimit: 10;        stroke-width: .71px;      }      .cls-2 {        fill: #fff;        stroke-linecap: round;      }    </style></defs><path class="cls-1" d="M42.71,18.64c0,7.41-6.01,13.42-13.42,13.42-3.59,0-6.85-1.41-9.26-3.71-2.55,.39-4.51-.05-5.62-.43-.48-.16-.58-.79-.19-1.1l2.98-2.34c-.85-1.77-1.33-3.75-1.33-5.84,0-7.41,6.01-13.42,13.42-13.42s13.42,6.01,13.42,13.42Z"></path><g><line class="cls-2" x1="24" y1="12.66" x2="34.76" y2="12.66"></line><line class="cls-2" x1="22.31" y1="15.46" x2="36.45" y2="15.46"></line><line class="cls-2" x1="24" y1="18.27" x2="34.76" y2="18.27"></line><line class="cls-2" x1="24" y1="23.88" x2="34.76" y2="23.88"></line><line class="cls-2" x1="22.31" y1="21.08" x2="36.45" y2="21.08"></line></g><path class="cls-1" d="M8.35,16.15l1.88,3.85c.64,.94,.35,2.22-.63,2.8l-1.37,.8s-.85,2.09,2.71,6.59,4.96,3.1,4.96,3.1l1.5-.98c.89-.58,2.08-.35,2.69,.53l2.6,3.75c.65,.94,.42,2.22-.5,2.89-1.26,.91-3.14,1.8-5.12,1.1-3.49-1.24-7.91-3.26-11.01-9S1.63,22.52,2.02,19.8c.22-1.53,2.14-3.33,3.41-4.2,.96-.66,2.26-.41,2.91,.55Z"></path></svg>