<svg xmlns="http://www.w3.org/2000/svg" id="Icons" viewBox="0 0 44 44"><defs><style>      .cls-1 {        fill: none;        stroke: #001426;        stroke-linecap: round;        stroke-linejoin: round;        stroke-width: .71px;      }    </style></defs><path class="cls-1" d="M13.57,31.43s5.9,.62,14.07-2.64,9.93-4.76,11.75-7.08c0,0-2.68-13.4-11.9-15.29-9.22-1.88-15.77,2.24-15.77,2.24,0,0-8.22,5.96-6.02,18.7,.33,2.42,.78,4.57,.78,4.57l-.35,1.55,5.59,.44,1.85-2.49Z"></path><path class="cls-1" d="M5.71,27.36s-.04-5.06,1.89-10.33c1.93-5.27,6.85-9.72,6.85-9.72"></path><path class="cls-1" d="M11.72,33.92s.22-.06-.11-2.34-1.61-7.58-.69-13.39c.91-5.81,3.16-9.24,5.55-11.44"></path><path class="cls-1" d="M13.57,31.43s-1.64-8.15-.95-12.65,1.12-9.26,6.26-12.55"></path><path class="cls-1" d="M39.39,21.71l2.58,1.47s.61,4.09-12.66,8.27c-18.35,5.78-24.22,2.9-24.22,2.9l1.04-.87"></path><path class="cls-1" d="M28.57,31.65s-4.26,4.8-7.53,5.84-17.07,.42-17.98,.02,2.03-3.17,2.03-3.17"></path></svg>