<svg xmlns="http://www.w3.org/2000/svg" id="Icons" viewBox="0 0 44 44"><defs><style>      .cls-1 {        stroke-dasharray: 0 1.27;      }      .cls-1, .cls-2, .cls-3, .cls-4 {        fill: none;        stroke: #001426;        stroke-width: .71px;      }      .cls-1, .cls-3, .cls-4 {        stroke-linecap: round;      }      .cls-1, .cls-4 {        stroke-linejoin: round;      }      .cls-2, .cls-3 {        stroke-miterlimit: 10;      }    </style></defs><polyline class="cls-3" points="30.04 19.08 30.04 1.42 9.26 1.42 2.25 10.12 2.25 38.62 20.36 38.62"></polyline><polyline class="cls-2" points="2.25 10.12 9.32 10.12 9.32 1.42"></polyline><polygon class="cls-2" points="26.89 31.94 29.58 34.29 37.54 26.89 38.92 28.47 29.7 37.36 25.55 33.2 26.89 31.94"></polygon><circle class="cls-2" cx="31.69" cy="32.13" r="10.81"></circle><polyline class="cls-4" points="20.62 27.16 17.01 27.16 17.01 31.55 6.59 31.55 6.59 12.53 14.92 12.53 14.92 13.96 25.69 13.96 25.69 21.58"></polyline><line class="cls-2" x1="17.01" y1="27.16" x2="6.59" y2="27.16"></line><polyline class="cls-1" points="6.59 12.53 10.72 16.68 14.89 12.5"></polyline><polyline class="cls-1" points="10.72 16.68 10.72 22.93 6.64 27.03"></polyline><line class="cls-1" x1="10.72" y1="22.93" x2="14.93" y2="27.17"></line><line class="cls-1" x1="20.62" y1="13.96" x2="20.62" y2="27.03"></line><path class="cls-4" d="M6.52,34.71v-1.55"></path><path class="cls-4" d="M16.85,34.71c0-.52,0-1.03,0-1.55"></path><rect class="cls-2" x="17.01" y="5.18" width="7.69" height="6"></rect><g><path class="cls-4" d="M26.52,5.18c.01,9.2,0-3.2,0,6"></path><path class="cls-4" d="M25.8,5.18h1.55"></path><path class="cls-4" d="M25.8,11.18c.52,0,1.03,0,1.55,0"></path></g><line class="cls-4" x1="6.52" y1="33.91" x2="16.85" y2="33.91"></line></svg>