<svg xmlns="http://www.w3.org/2000/svg" id="Layer_3" data-name="Layer 3" viewBox="0 0 44 44"><defs><style>      .cls-1 {        fill: #001426;      }      .cls-2 {        fill: none;        stroke: #001426;        stroke-miterlimit: 10;        stroke-width: .71px;      }    </style></defs><polygon class="cls-1" points="5.14 14.08 5.42 14.96 4.68 14.41 3.94 14.96 4.22 14.08 3.49 13.55 4.4 13.56 4.68 12.73 4.96 13.56 5.87 13.55 5.14 14.08"></polygon><polygon class="cls-1" points="8.25 14.08 8.53 14.96 7.79 14.41 7.06 14.96 7.33 14.08 6.6 13.55 7.51 13.56 7.79 12.73 8.07 13.56 8.99 13.55 8.25 14.08"></polygon><polygon class="cls-1" points="11.37 14.08 11.65 14.96 10.91 14.41 10.17 14.96 10.45 14.08 9.72 13.55 10.63 13.56 10.91 12.73 11.19 13.56 12.1 13.55 11.37 14.08"></polygon><polygon class="cls-1" points="14.48 14.08 14.76 14.96 14.02 14.41 13.29 14.96 13.56 14.08 12.83 13.55 13.74 13.56 14.02 12.73 14.3 13.56 15.21 13.55 14.48 14.08"></polygon><polygon class="cls-1" points="5.14 17.33 5.42 18.2 4.68 17.66 3.94 18.2 4.22 17.33 3.49 16.8 4.4 16.8 4.68 15.97 4.96 16.8 5.87 16.8 5.14 17.33"></polygon><polygon class="cls-1" points="8.25 17.33 8.53 18.2 7.79 17.66 7.06 18.2 7.33 17.33 6.6 16.8 7.51 16.8 7.79 15.97 8.07 16.8 8.99 16.8 8.25 17.33"></polygon><polygon class="cls-1" points="11.37 17.33 11.65 18.2 10.91 17.66 10.17 18.2 10.45 17.33 9.72 16.8 10.63 16.8 10.91 15.97 11.19 16.8 12.1 16.8 11.37 17.33"></polygon><polygon class="cls-1" points="14.48 17.33 14.76 18.2 14.02 17.66 13.29 18.2 13.56 17.33 12.83 16.8 13.74 16.8 14.02 15.97 14.3 16.8 15.21 16.8 14.48 17.33"></polygon><polygon class="cls-1" points="5.14 20.45 5.42 21.33 4.68 20.78 3.94 21.33 4.22 20.45 3.49 19.92 4.4 19.93 4.68 19.1 4.96 19.93 5.87 19.92 5.14 20.45"></polygon><polygon class="cls-1" points="8.25 20.45 8.53 21.33 7.79 20.78 7.06 21.33 7.33 20.45 6.6 19.92 7.51 19.93 7.79 19.1 8.07 19.93 8.99 19.92 8.25 20.45"></polygon><polygon class="cls-1" points="11.37 20.45 11.65 21.33 10.91 20.78 10.17 21.33 10.45 20.45 9.72 19.92 10.63 19.93 10.91 19.1 11.19 19.93 12.1 19.92 11.37 20.45"></polygon><polygon class="cls-1" points="14.48 20.45 14.76 21.33 14.02 20.78 13.29 21.33 13.56 20.45 12.83 19.92 13.74 19.93 14.02 19.1 14.3 19.93 15.21 19.92 14.48 20.45"></polygon><rect class="cls-2" x="2.03" y="11.62" width="40.63" height="22.97"></rect><line class="cls-2" x1="2.04" y1="25.98" x2="42.67" y2="25.98"></line><line class="cls-2" x1="2.04" y1="28.85" x2="42.67" y2="28.85"></line><line class="cls-2" x1="1.99" y1="31.72" x2="42.62" y2="31.72"></line><line class="cls-2" x1="2.03" y1="23.11" x2="42.66" y2="23.11"></line><line class="cls-2" x1="17.24" y1="23.11" x2="17.24" y2="11.62"></line><line class="cls-2" x1="17.19" y1="14.49" x2="42.61" y2="14.49"></line><line class="cls-2" x1="17.19" y1="17.36" x2="42.61" y2="17.36"></line><line class="cls-2" x1="17.19" y1="20.24" x2="42.61" y2="20.24"></line></svg>