<svg xmlns="http://www.w3.org/2000/svg" id="Layer_3" data-name="Layer 3" viewBox="0 0 44 44"><defs><style>      .cls-1 {        fill: none;        stroke: #001426;        stroke-linecap: round;        stroke-miterlimit: 10;        stroke-width: .71px;      }    </style></defs><rect class="cls-1" x="11.43" y="3" width="22.27" height="37.71" transform="translate(.71 44.42) rotate(-90)"></rect><rect class="cls-1" x="11.43" y="3" width="22.27" height="37.71" transform="translate(.71 44.42) rotate(-90)"></rect><path class="cls-1" d="M11.04,13.32h22.89c0,2.85,2,5.16,4.46,5.16h.01v6.73c-2.47,0-4.46,2.31-4.46,5.16H11.05c0-2.85-2-5.16-4.46-5.16h-.01v-6.73c2.47,0,4.46-2.31,4.46-5.16Z"></path><circle class="cls-1" cx="22.32" cy="21.85" r="5.16"></circle><path class="cls-1" d="M23.6,20.05s-.34-.72-1.34-.78-1.52,.63-1.52,1.3c0,.65,.49,1.19,1.43,1.19,.8,0,1.79,.28,1.79,1.29s-.96,1.34-1.61,1.34c-1.07,0-1.43-.8-1.43-.8"></path><line class="cls-1" x1="22.35" y1="18.12" x2="22.35" y2="25.59"></line><g><line class="cls-1" x1="30.59" y1="23.4" x2="33.21" y2="23.4"></line><line class="cls-1" x1="11.43" y1="23.4" x2="14.04" y2="23.4"></line><line class="cls-1" x1="30.59" y1="20.31" x2="33.21" y2="20.31"></line><line class="cls-1" x1="11.43" y1="20.31" x2="14.04" y2="20.31"></line></g></svg>