<svg xmlns="http://www.w3.org/2000/svg" id="Icons" viewBox="0 0 44 44"><defs><style>      .cls-1 {        stroke-width: .71px;      }      .cls-1, .cls-2 {        fill: none;        stroke: #001426;        stroke-linecap: round;        stroke-linejoin: round;      }      .cls-2 {        stroke-width: .59px;      }    </style></defs><path class="cls-1" d="M15.96,11.99H7.73s-.51-5.62,4.17-5.62,4.09,5.62,4.09,5.62v20.94s0,3.4,3.4,3.4,4.6-2.13,4.6-5.28h17.96s.85,5.28-4.34,5.28H20.67"></path><path class="cls-1" d="M35.68,13.33v-3.74s-.11-3.21-4.65-3.21H13.05"></path><line class="cls-1" x1="19.73" y1="12.93" x2="31.88" y2="12.93"></line><line class="cls-1" x1="19.73" y1="16.94" x2="27.85" y2="16.94"></line><line class="cls-1" x1="19.73" y1="20.95" x2="27.85" y2="20.95"></line><line class="cls-1" x1="19.73" y1="24.96" x2="27.85" y2="24.96"></line><polyline class="cls-1" points="39.17 22.63 39.17 28.92 35.67 27.35 32.3 28.92 32.3 22.63"></polyline><circle class="cls-1" cx="35.74" cy="19.44" r="4.64"></circle><g><rect class="cls-1" x="4.62" y="15.2" width="3.87" height="20.14"></rect><line class="cls-1" x1="8.28" y1="19.25" x2="6.47" y2="19.25"></line><line class="cls-1" x1="8.28" y1="23.37" x2="6.47" y2="23.37"></line><line class="cls-1" x1="8.28" y1="27.36" x2="6.47" y2="27.36"></line><line class="cls-1" x1="8.33" y1="31.5" x2="6.51" y2="31.5"></line><line class="cls-2" x1="8.19" y1="17.23" x2="7.46" y2="17.23"></line><line class="cls-1" x1="8.19" y1="21.33" x2="7.13" y2="21.33"></line><line class="cls-1" x1="8.19" y1="25.34" x2="7.13" y2="25.34"></line><line class="cls-1" x1="8.19" y1="29.42" x2="7.13" y2="29.42"></line><line class="cls-1" x1="8.19" y1="33.48" x2="7.13" y2="33.48"></line></g><g><path class="cls-1" d="M10.22,31.34l.08-15.29c0-.37,.3-.68,.68-.69l2.18-.04c.38,0,.7,.3,.7,.68l.2,15.35-3.84-.02Z"></path><line class="cls-1" x1="10.28" y1="19.39" x2="13.9" y2="19.39"></line><line class="cls-1" x1="10.29" y1="17.82" x2="13.91" y2="17.82"></line><polyline class="cls-1" points="10.22 31.34 12.05 35.37 14.06 31.36"></polyline><path class="cls-1" d="M13.05,33.37s-1.04-.84-1.83,.19"></path><line class="cls-1" x1="12.02" y1="31.35" x2="12.08" y2="22.59"></line></g></svg>