<svg xmlns="http://www.w3.org/2000/svg" id="Layer_3" data-name="Layer 3" viewBox="0 0 44 44"><defs><style>      .cls-1 {        stroke-miterlimit: 10;        stroke-width: .89px;      }      .cls-1, .cls-2 {        fill: none;        stroke: #001426;      }      .cls-2 {        stroke-linecap: round;        stroke-linejoin: round;        stroke-width: .89px;      }    </style></defs><g><polygon class="cls-1" points="8.28 4.52 8.09 39.15 14.35 39.19 14.55 4.64 8.28 4.52"></polygon><line class="cls-1" x1="14.61" y1="11.59" x2="11.67" y2="11.57"></line><line class="cls-1" x1="14.57" y1="18.64" x2="11.63" y2="18.63"></line><line class="cls-1" x1="14.53" y1="25.49" x2="11.59" y2="25.48"></line><line class="cls-1" x1="14.56" y1="32.6" x2="11.63" y2="32.58"></line><line class="cls-1" x1="14.48" y1="8.13" x2="12.77" y2="8.12"></line><line class="cls-1" x1="14.44" y1="15.16" x2="12.73" y2="15.15"></line><line class="cls-1" x1="14.4" y1="22.03" x2="12.69" y2="22.02"></line><line class="cls-1" x1="14.36" y1="29.03" x2="12.65" y2="29.02"></line><line class="cls-1" x1="14.32" y1="36" x2="12.61" y2="35.99"></line></g><g><path class="cls-1" d="M23.22,23.79L16.7,7.76c-.16-.39,.02-.84,.41-1.01l2.27-.98c.4-.17,.86,.01,1.03,.41l6.83,15.98-4.02,1.63Z"></path><line class="cls-1" x1="18.12" y1="11.25" x2="21.91" y2="9.69"></line><line class="cls-1" x1="17.46" y1="9.61" x2="21.25" y2="8.05"></line><polyline class="cls-1" points="23.22 23.79 26.87 27.21 27.25 22.16"></polyline><path class="cls-1" d="M27.06,24.69s-1.45-.43-1.83,.98"></path><line class="cls-1" x1="25.11" y1="23.02" x2="21.39" y2="13.83"></line></g><path class="cls-2" d="M7.98,2.1H26.87s13.82,1.62,13.82,19.93-13.82,19.93-13.82,19.93H8.68"></path><path class="cls-2" d="M26.68,40.43s-.05,0-.08,0c-1.75-3.92-5.53-6.74-10-7.12"></path><path class="cls-2" d="M16.83,28.02c6.37,.4,11.75,4.45,14.07,10.08"></path><path class="cls-2" d="M36.74,30.92c-1.43,.44-2.81,1.12-4.08,2.02"></path><path class="cls-2" d="M29.28,30.12c2.49-1.85,5.3-3.03,8.19-3.56"></path></svg>