<svg xmlns="http://www.w3.org/2000/svg" id="Layer_3" data-name="Layer 3" viewBox="0 0 44 44"><defs><style>      .cls-1 {        stroke-miterlimit: 10;      }      .cls-1, .cls-2 {        fill: none;        stroke: #001426;        stroke-width: .71px;      }      .cls-2 {        stroke-linecap: round;        stroke-linejoin: round;      }    </style></defs><path class="cls-2" d="M20.03,36.16c.76,.13,1.54,.19,2.34,.18s1.58-.09,2.33-.23"></path><g><path class="cls-2" d="M29.52,34.07c3.54-2.45,5.84-6.56,5.79-11.19,0-.72-.07-1.43-.19-2.12"></path><path class="cls-2" d="M8.65,19.21c-.33,1.19-.5,2.45-.49,3.75,.05,5.11,2.95,9.51,7.17,11.74"></path><path class="cls-2" d="M16.99,10.53c-1.07,.42-2.08,.98-3,1.65"></path><path class="cls-2" d="M30.5,12.54c-.53-.44-1.1-.84-1.7-1.19"></path></g><path class="cls-1" d="M25.08,16.04c1.69-.49,2.74-2.53,2.77-4.27,.05-2.32-1.54-4.3-3.71-4.83l.09-4.45-1.99-.04-.09,4.42c-2.25,.39-3.99,2.33-4.03,4.69-.04,1.74,.84,3.28,2.2,4.17l-4,20.09,.45,5.22,1.95-4.87,3.01-19.87c.22,.04,.62,.15,.85,.18,.46,.07,.82,.04,1.06,0l2.41,19.59,1.97,5.07,.41-5.23-3.35-19.88Zm-2.16-.97c-1.88-.04-3.37-1.59-3.33-3.47s1.59-3.37,3.47-3.33,3.37,1.59,3.33,3.47-1.59,3.37-3.47,3.33Z"></path><g><polygon class="cls-1" points="6.67 6 12.2 29.08 16.67 28.01 11.11 4.75 6.67 6"></polygon><line class="cls-1" x1="12.3" y1="9.41" x2="10.2" y2="9.92"></line><line class="cls-1" x1="13.44" y1="14.16" x2="11.34" y2="14.67"></line><line class="cls-1" x1="14.54" y1="18.77" x2="12.44" y2="19.28"></line><line class="cls-1" x1="15.73" y1="23.55" x2="13.64" y2="24.05"></line><line class="cls-1" x1="11.64" y1="7.11" x2="10.42" y2="7.4"></line><line class="cls-1" x1="12.77" y1="11.84" x2="11.55" y2="12.13"></line><line class="cls-1" x1="13.87" y1="16.47" x2="12.65" y2="16.76"></line><line class="cls-1" x1="15" y1="21.18" x2="13.78" y2="21.48"></line><line class="cls-1" x1="16.12" y1="25.88" x2="14.9" y2="26.17"></line></g><g><path class="cls-1" d="M28.51,23.78l4.68-17.53c.11-.43,.55-.69,.98-.58l2.52,.61c.44,.11,.71,.55,.6,.99l-4.39,17.69-4.4-1.18Z"></path><line class="cls-1" x1="32.18" y1="10.06" x2="36.34" y2="11.15"></line><line class="cls-1" x1="32.66" y1="8.27" x2="36.82" y2="9.36"></line><polyline class="cls-1" points="28.51 23.78 29.41 28.95 32.91 24.96"></polyline><path class="cls-1" d="M31.16,26.96s-.95-1.27-2.16-.34"></path><line class="cls-1" x1="30.58" y1="24.34" x2="33.28" y2="14.29"></line></g></svg>