<svg xmlns="http://www.w3.org/2000/svg" id="Icons" viewBox="0 0 44 44"><defs><style>      .cls-1 {        fill: none;        stroke: #001426;        stroke-miterlimit: 10;        stroke-width: 3.34px;      }    </style></defs><path class="cls-1" d="M26.85,17.39c1-.75,2.25-1.17,3.51-1.17,1.58,0,3.05,.61,4.11,1.73,1.06,1.06,1.68,2.56,1.68,4.1s-.61,3.03-1.7,4.12c-1.08,1.08-2.58,1.7-4.12,1.7s-3.01-.59-4.12-1.7l-8.31-8.28c-.53-.55-1.18-.98-1.96-1.3-.69-.27-1.45-.42-2.21-.42-.83,0-1.55,.13-2.19,.41-.77,.32-1.41,.74-1.97,1.31-.55,.53-.98,1.18-1.3,1.95-.27,.69-.42,1.45-.42,2.21,0,.83,.13,1.55,.41,2.19,.32,.76,.74,1.4,1.31,1.97,.53,.55,1.17,.98,1.95,1.3,.69,.27,1.45,.42,2.21,.42,.83,0,1.55-.13,2.19-.41,.46-.19,.87-.42,1.25-.69"></path></svg>