<svg xmlns="http://www.w3.org/2000/svg" id="Layer_3" data-name="Layer 3" viewBox="0 0 44 44"><defs><style>      .cls-1 {        stroke-dasharray: 0 0 1.04 1.04;      }      .cls-1, .cls-2, .cls-3, .cls-4, .cls-5, .cls-6 {        fill: none;        stroke: #001426;        stroke-linecap: round;        stroke-linejoin: round;      }      .cls-1, .cls-2, .cls-5, .cls-6 {        stroke-width: .69px;      }      .cls-2 {        stroke-dasharray: 0 .7;      }      .cls-3 {        stroke-width: .61px;      }      .cls-4 {        stroke-width: .64px;      }      .cls-5 {        stroke-dasharray: 0 1.05;      }    </style></defs><g><path class="cls-6" d="M14.05,9.53V27.53h5.58c0,2.91,0,5.81,0,8.72h9.17V9.46h-.7c0-1.02,0-2.04,0-3.06-4.4,0-8.79,0-13.19,0,0,1.04,0,2.08,0,3.11-.29,0-.58,0-.86,0Z"></path><g><path class="cls-6" d="M14.15,19.03h.52"></path><path class="cls-1" d="M15.72,19.03h12"></path><path class="cls-6" d="M28.25,19.03h.52"></path></g><g><path class="cls-3" d="M33.19,6.99h-3.67"></path><path class="cls-3" d="M30.47,5.85c.57,0,1.13,0,1.7,0"></path></g><path class="cls-6" d="M31.83,19.46c.29,0,.57,0,.86,0"></path><g><path class="cls-4" d="M18.3,29.73c-1.32,0-2.65,0-3.97,0"></path><path class="cls-4" d="M15.36,28.57h1.84"></path></g><path class="cls-5" d="M14.05,9.53c2.49,2.49,4.98,4.98,7.47,7.47,2.35-2.35,4.71-4.71,7.06-7.06"></path><path class="cls-2" d="M28.76,27.47c-1.47-1.47-2.95-2.95-4.42-4.42-1.58,1.58-3.16,3.16-4.74,4.74"></path><path class="cls-6" d="M30.43,9.26c0,7.6,0,15.19,0,22.79"></path><path class="cls-6" d="M29.83,9.04h1.27"></path><path class="cls-6" d="M29.83,32.31c.42,0,.85,0,1.27,0"></path><g><path class="cls-6" d="M19.52,37.52c0,.27,0,.55,0,.82"></path><path class="cls-6" d="M28.94,37.52c0,.27,0,.55,0,.82"></path><path class="cls-6" d="M19.64,37.99c1.87,0,3.74,0,5.61,0,1.19,0,2.39,0,3.58,0"></path></g><g><path class="cls-6" d="M14.87,4.57c0,.27,0,.55,0,.82"></path><path class="cls-6" d="M28.21,4.57c0,.27,0,.55,0,.82"></path><path class="cls-6" d="M28.11,5.04H14.99"></path></g><path class="cls-5" d="M12.29,27.38c0-6.01,0-12.02,0-18.04"></path></g><rect class="cls-6" x="8.46" y="1.45" width="27.91" height="41.01"></rect></svg>